<?xml version="1.0" encoding="UTF-8"?>
<svg xmlns="http://www.w3.org/2000/svg" width="1060" height="800" viewBox="0 0 1060 800" role="img" aria-labelledby="title desc">
<title id="title">Family Hub entity relationship overview</title><desc id="desc">17 entities. Canonical relationships are in data-model.mmd.</desc>
<style>svg{background:#f6f0e5}rect{fill:#fffdf8;stroke:#b8aa96;stroke-width:1.5}.title{font:700 28px system-ui;fill:#202b33}.subtitle,.meta{font:500 12px system-ui;fill:#68747b}.entity{font:700 16px system-ui;fill:#254e70}.relations{font:500 11px system-ui;fill:#52616a}</style>
<text x="28" y="42" class="title">Family Hub · Entity Map</text><text x="28" y="65" class="subtitle">Canonical ER source: docs/data-model.mmd · generated without network access</text>
<g><rect x="28" y="90" width="230" height="78" rx="14"/><text x="46" y="124" class="entity">User</text><text x="46" y="148" class="meta">typed entity</text></g><g><rect x="286" y="90" width="230" height="78" rx="14"/><text x="304" y="124" class="entity">Household</text><text x="304" y="148" class="meta">typed entity</text></g><g><rect x="544" y="90" width="230" height="78" rx="14"/><text x="562" y="124" class="entity">HouseholdMembership</text><text x="562" y="148" class="meta">typed entity</text></g><g><rect x="802" y="90" width="230" height="78" rx="14"/><text x="820" y="124" class="entity">Authenticator</text><text x="820" y="148" class="meta">typed entity</text></g><g><rect x="28" y="198" width="230" height="78" rx="14"/><text x="46" y="232" class="entity">Session</text><text x="46" y="256" class="meta">typed entity</text></g><g><rect x="286" y="198" width="230" height="78" rx="14"/><text x="304" y="232" class="entity">HouseholdInvite</text><text x="304" y="256" class="meta">typed entity</text></g><g><rect x="544" y="198" width="230" height="78" rx="14"/><text x="562" y="232" class="entity">Event</text><text x="562" y="256" class="meta">typed entity</text></g><g><rect x="802" y="198" width="230" height="78" rx="14"/><text x="820" y="232" class="entity">Todo</text><text x="820" y="256" class="meta">typed entity</text></g><g><rect x="28" y="306" width="230" height="78" rx="14"/><text x="46" y="340" class="entity">Memo</text><text x="46" y="364" class="meta">typed entity</text></g><g><rect x="286" y="306" width="230" height="78" rx="14"/><text x="304" y="340" class="entity">Attachment</text><text x="304" y="364" class="meta">typed entity</text></g><g><rect x="544" y="306" width="230" height="78" rx="14"/><text x="562" y="340" class="entity">Expense</text><text x="562" y="364" class="meta">typed entity</text></g><g><rect x="802" y="306" width="230" height="78" rx="14"/><text x="820" y="340" class="entity">ExpenseShare</text><text x="820" y="364" class="meta">typed entity</text></g><g><rect x="28" y="414" width="230" height="78" rx="14"/><text x="46" y="448" class="entity">SettlementRecord</text><text x="46" y="472" class="meta">typed entity</text></g><g><rect x="286" y="414" width="230" height="78" rx="14"/><text x="304" y="448" class="entity">RecurrenceRule</text><text x="304" y="472" class="meta">typed entity</text></g><g><rect x="544" y="414" width="230" height="78" rx="14"/><text x="562" y="448" class="entity">RecurrenceOverride</text><text x="562" y="472" class="meta">typed entity</text></g><g><rect x="802" y="414" width="230" height="78" rx="14"/><text x="820" y="448" class="entity">ResourceLink</text><text x="820" y="472" class="meta">typed entity</text></g><g><rect x="28" y="522" width="230" height="78" rx="14"/><text x="46" y="556" class="entity">AuditEvent</text><text x="46" y="580" class="meta">typed entity</text></g>
<text x="28" y="738" class="subtitle">Selected relationships</text><foreignObject x="28" y="750" width="1004" height="42"><div xmlns="http://www.w3.org/1999/xhtml" style="font:11px system-ui;color:#52616a;line-height:1.5">User · belongs_through  •  Household · has  •  User · registers  •  User · owns  •  Household · issues  •  HouseholdInvite · accepted_as  •  Household · contains  •  Household · contains  •  Household · contains  •  Household · contains  •  Household · contains  •  Household · records</div></foreignObject>
</svg>